<?xml version="1.0" encoding="UTF-8" standalone="no"?>
<!-- Created with Inkscape (http://www.inkscape.org/) -->

<svg
   xmlns:dc="http://purl.org/dc/elements/1.1/"
   xmlns:cc="http://creativecommons.org/ns#"
   xmlns:rdf="http://www.w3.org/1999/02/22-rdf-syntax-ns#"
   xmlns:svg="http://www.w3.org/2000/svg"
   xmlns="http://www.w3.org/2000/svg"
   xmlns:sodipodi="http://sodipodi.sourceforge.net/DTD/sodipodi-0.dtd"
   xmlns:inkscape="http://www.inkscape.org/namespaces/inkscape"
   width="476.13037"
   height="278.35333"
   id="svg4743"
   version="1.1"
   inkscape:version="0.48.4 r9939"
   sodipodi:docname="New document 10">
  <defs
     id="defs4745">
    <marker
       inkscape:stockid="Arrow1Send"
       orient="auto"
       refY="0"
       refX="0"
       id="Arrow1Send"
       style="overflow:visible">
      <path
         inkscape:connector-curvature="0"
         id="path3784"
         d="M 0,0 5,-5 -12.5,0 5,5 0,0 z"
         style="fill-rule:evenodd;stroke:#000000;stroke-width:1pt"
         transform="matrix(-0.2,0,0,-0.2,-1.2,0)" />
    </marker>
    <marker
       inkscape:stockid="Arrow1Send"
       orient="auto"
       refY="0"
       refX="0"
       id="marker4763"
       style="overflow:visible">
      <path
         inkscape:connector-curvature="0"
         id="path4765"
         d="M 0,0 5,-5 -12.5,0 5,5 0,0 z"
         style="fill-rule:evenodd;stroke:#000000;stroke-width:1pt"
         transform="matrix(-0.2,0,0,-0.2,-1.2,0)" />
    </marker>
  </defs>
  <sodipodi:namedview
     id="base"
     pagecolor="#ffffff"
     bordercolor="#666666"
     borderopacity="1.0"
     inkscape:pageopacity="0.0"
     inkscape:pageshadow="2"
     inkscape:zoom="0.7"
     inkscape:cx="-38.916373"
     inkscape:cy="-102.89713"
     inkscape:document-units="px"
     inkscape:current-layer="layer1"
     showgrid="false"
     fit-margin-top="0"
     fit-margin-left="0"
     fit-margin-right="0"
     fit-margin-bottom="0"
     inkscape:window-width="1117"
     inkscape:window-height="718"
     inkscape:window-x="658"
     inkscape:window-y="348"
     inkscape:window-maximized="0" />
  <metadata
     id="metadata4748">
    <rdf:RDF>
      <cc:Work
         rdf:about="">
        <dc:format>image/svg+xml</dc:format>
        <dc:type
           rdf:resource="http://purl.org/dc/dcmitype/StillImage" />
        <dc:title></dc:title>
      </cc:Work>
    </rdf:RDF>
  </metadata>
  <g
     inkscape:label="Layer 1"
     inkscape:groupmode="layer"
     id="layer1"
     transform="translate(-179.07768,-221.75694)">
    <path
       style="fill:none;stroke:#800000;stroke-width:2;stroke-linecap:butt;stroke-linejoin:miter;stroke-miterlimit:4;stroke-opacity:1;stroke-dasharray:none;marker-end:url(#Arrow1Send)"
       d="m 180.07768,470.07401 434.36559,0"
       id="path2989"
       inkscape:connector-curvature="0" />
    <path
       style="fill:none;stroke:#800000;stroke-width:2;stroke-linecap:butt;stroke-linejoin:miter;stroke-miterlimit:4;stroke-opacity:1;stroke-dasharray:none;marker-end:url(#Arrow1Send)"
       d="m 197.25028,494.31767 0,-269.71073"
       id="path2991"
       inkscape:connector-curvature="0" />
    <path
       style="fill:none;stroke:#2c22e9;stroke-width:4;stroke-linecap:butt;stroke-linejoin:miter;stroke-miterlimit:4;stroke-opacity:1;stroke-dasharray:none"
       d="m 196.19297,467.76742 c 1.19048,-0.71429 2.50489,-1.25407 3.57143,-2.14286 2.38943,-1.99119 0.0128,-0.7398 0.71428,-2.14285 0.15059,-0.30117 0.52751,-0.43412 0.71429,-0.71429 0.29532,-0.44298 0.39485,-1.00265 0.71429,-1.42857 3.08949,-3.08949 0.11194,0.18922 2.14285,-2.85714 1.09399,-1.64098 0.408,0.30628 2.14286,-1.42858 0.37646,-0.37646 0.41897,-0.98559 0.71429,-1.42857 0.37355,-0.56033 1.1274,-0.82623 1.42857,-1.42857 0.10648,-0.21296 -0.16836,-0.54592 0,-0.71428 0.16836,-0.16836 0.54592,0.16836 0.71428,0 0.16836,-0.16836 -0.10648,-0.50133 0,-0.71429 0.42857,-0.85714 1.71429,-1.28571 2.14286,-2.14286 0.10648,-0.21296 -0.10648,-0.50132 0,-0.71428 0.35144,-0.70288 2.5057,-2.15427 2.85714,-2.85715 0.10648,-0.21295 -0.10648,-0.50132 0,-0.71428 0.19075,-0.38149 1.76681,-1.76681 2.14286,-2.14286 1.66667,-1.66666 3.33333,-3.33333 5,-5 0.37604,-0.37604 1.95211,-1.76137 2.14285,-2.14286 0.10648,-0.21295 -0.13207,-0.51617 0,-0.71428 0.47619,-0.47619 0.95238,-0.95238 1.42857,-1.42857 0,-0.2381 -0.10648,-0.50133 0,-0.71429 0.42858,-0.85714 1.71429,-1.28571 2.14286,-2.14286 0.10648,-0.21295 -0.16836,-0.54592 0,-0.71428 1.47788,-1.47788 -0.0578,2.2584 1.42857,-0.71429 0.10648,-0.21296 -0.10648,-0.50132 0,-0.71428 0.42857,-0.85715 1.71429,-1.28572 2.14286,-2.14286 0.10648,-0.21296 -0.10648,-0.50133 0,-0.71429 0.30117,-0.60233 1.1274,-0.82623 1.42857,-1.42857 0.10648,-0.21296 -0.10648,-0.50132 0,-0.71428 0.31655,-0.6331 1.70938,-1.49263 2.14286,-2.14286 0.29532,-0.44298 0.39485,-1.00265 0.71428,-1.42857 0.6061,-0.80812 1.58253,-1.30236 2.14286,-2.14286 0.29532,-0.44298 0.41897,-0.98559 0.71429,-1.42857 0.43348,-0.65022 1.82631,-1.50976 2.14285,-2.14286 0.10648,-0.21296 -0.10648,-0.50132 0,-0.71428 0.30117,-0.60234 1.12741,-0.82624 1.42858,-1.42857 0.10648,-0.21296 -0.10648,-0.50133 0,-0.71429 0.16538,-0.33077 2.43704,-2.43704 2.85714,-2.85714 0.23809,-0.2381 0.5637,-0.41312 0.71428,-0.71429 0.10648,-0.21296 -0.10648,-0.50132 0,-0.71428 0.15059,-0.30117 0.56371,-0.41312 0.71429,-0.71429 0.10648,-0.21296 -0.10648,-0.50133 0,-0.71429 0.15058,-0.30116 0.52751,-0.43412 0.71429,-0.71428 0.29532,-0.44298 0.41896,-0.98559 0.71428,-1.42857 -0.0713,-1.41504 1.05211,-0.33783 1.42857,-0.71429 0.37646,-0.37646 0.41897,-0.98559 0.71429,-1.42857 0.43348,-0.65022 1.82631,-1.50976 2.14286,-2.14286 0.10648,-0.21296 -0.10648,-0.50132 0,-0.71428 0.42857,-0.85715 1.71428,-1.28572 2.14285,-2.14286 0.10648,-0.21296 -0.10648,-0.50133 0,-0.71429 0.19075,-0.38148 1.76681,-1.76681 2.14286,-2.14285 1.42857,-1.42857 2.85714,-2.85715 4.28571,-4.28572 0.47619,-0.47619 1.05502,-0.86824 1.42858,-1.42857 0.29532,-0.44298 0.41896,-0.98559 0.71428,-1.42857 0.18678,-0.28017 0.47619,-0.47619 0.71429,-0.71429 0.71428,-0.71428 1.42857,-1.42857 2.14285,-2.14285 0.2381,-0.2381 0.56371,-0.41312 0.71429,-0.71429 0.63222,-1.26444 -1.06245,-0.24408 0.71429,-1.42857 0.44298,-0.29532 0.98559,-0.41896 1.42857,-0.71429 0.28016,-0.18677 0.47619,-0.47619 0.71428,-0.71428 0.71429,-0.71429 1.42857,-1.42857 2.14286,-2.14286 0.2381,-0.23809 0.47619,-0.47619 0.71429,-0.71428 0.23809,-0.2381 0.5637,-0.41312 0.71428,-0.71429 0.10648,-0.21296 -0.10648,-0.50133 0,-0.71429 0.19075,-0.38148 1.76681,-1.76681 2.14286,-2.14285 1.66667,-1.66667 3.33333,-3.33334 5,-5 0.37604,-0.37605 1.95211,-1.76137 2.14286,-2.14286 0.10648,-0.21296 -0.16836,-0.54593 0,-0.71429 1.47788,-1.47788 -0.0578,2.25841 1.42857,-0.71428 0,-1.90476 -0.2381,0.23809 0.71428,-0.71429 0.16836,-0.16836 -0.16836,-0.54592 0,-0.71428 0.86999,-0.86999 1.59587,-0.33459 2.14286,-1.42857 0.49263,-0.98526 -0.86504,-0.63891 0.71429,-1.42858 0.98525,-0.49262 0.6389,0.86504 1.42857,-0.71428 0,-1.90476 -0.2381,0.23809 0.71428,-0.71429 1.47789,-1.47788 -2.2584,0.0578 0.71429,-1.42857 0.21296,-0.10648 0.54593,0.16836 0.71428,0 1.47789,-1.47788 -2.2584,0.0578 0.71429,-1.42857 0.21296,-0.10648 0.54593,0.16836 0.71429,0 0.16835,-0.16836 -0.16836,-0.54593 0,-0.71429 0.16835,-0.16835 0.54592,0.16836 0.71428,0 0.16836,-0.16835 -0.16836,-0.54592 0,-0.71428 0.16836,-0.16836 0.54593,0.16836 0.71429,0 0.16836,-0.16836 -0.16836,-0.54593 0,-0.71429 0.16836,-0.16836 0.50132,0.10648 0.71428,0 0.60234,-0.30117 0.82624,-1.1274 1.42857,-1.42857 0.21296,-0.10648 0.54593,0.16836 0.71429,0 0.16836,-0.16836 -0.16836,-0.54593 0,-0.71428 0.16836,-0.16836 0.50133,0.10648 0.71429,0 0.30117,-0.15059 0.41311,-0.5637 0.71428,-0.71429 0.21296,-0.10648 0.50133,0.10648 0.71429,0 0.30117,-0.15058 0.41311,-0.5637 0.71428,-0.71429 0.21296,-0.10647 0.50133,0.10648 0.71429,0 0.60234,-0.30116 0.82623,-1.1274 1.42857,-1.42857 0.21296,-0.10648 0.50133,0.10648 0.71429,0 0.70287,-0.35144 2.15426,-2.5057 2.85714,-2.85714 1.26444,-0.63222 0.24408,1.06246 1.42857,-0.71429 0.29532,-0.44298 0.33782,-1.05211 0.71429,-1.42857 0.16835,-0.16836 0.50132,0.10648 0.71428,0 0.85714,-0.42857 1.28572,-1.71428 2.14286,-2.14285 0.21296,-0.10648 0.50133,0.10648 0.71428,0 0.30117,-0.15059 0.43412,-0.52751 0.71429,-0.71429 0.44298,-0.29532 0.98559,-0.41896 1.42857,-0.71429 0.56033,-0.37355 0.82623,-1.1274 1.42857,-1.42857 0.21296,-0.10648 0.50133,0.10648 0.71429,0 0.60234,-0.30117 0.82623,-1.1274 1.42857,-1.42857 2.10201,-1.051 -0.94042,1.6547 1.42857,-0.71428 0.2381,-0.2381 0.47619,-0.47619 0.71429,-0.71429 0.23809,-0.23809 0.41311,-0.5637 0.71428,-0.71429 0.21296,-0.10647 0.48841,0.0753 0.71429,0 5.17387,-1.72462 -1.12615,0.20594 2.14286,-1.42857 0.21295,-0.10648 0.50132,0.10648 0.71428,0 0.30117,-0.15058 0.41312,-0.5637 0.71429,-0.71428 0.21296,-0.10648 0.54592,0.16836 0.71428,0 0.16836,-0.16836 -0.16836,-0.54593 0,-0.71429 0.16836,-0.16836 0.50133,0.10648 0.71429,0 0.30117,-0.15058 0.41312,-0.5637 0.71428,-0.71428 0.21296,-0.10648 0.54593,0.16835 0.71429,0 1.47788,-1.47789 -2.2584,0.0578 0.71429,-1.42858 0.21295,-0.10647 0.50132,0.10648 0.71428,0 0.30117,-0.15058 0.41312,-0.5637 0.71429,-0.71428 0.21296,-0.10648 0.54592,0.16836 0.71428,0 0.16836,-0.16836 -0.16836,-0.54593 0,-0.71429 0.16836,-0.16836 0.50133,0.10648 0.71429,0 0.30117,-0.15058 0.41312,-0.5637 0.71428,-0.71428 0.21296,-0.10648 0.50133,0.10648 0.71429,0 0.30117,-0.15059 0.41312,-0.5637 0.71429,-0.71429 0.21295,-0.10648 0.54592,0.16836 0.71428,0 0.16836,-0.16836 -0.16836,-0.54593 0,-0.71428 0.16836,-0.16836 0.48841,0.0753 0.71429,0 0.50507,-0.16836 0.92349,-0.54593 1.42857,-0.71429 0.22588,-0.0753 0.50133,0.10648 0.71428,0 0.30117,-0.15058 0.41312,-0.5637 0.71429,-0.71429 0.21296,-0.10647 0.50133,0.10648 0.71429,0 0.30117,-0.15058 0.41311,-0.5637 0.71428,-0.71428 0.21296,-0.10648 0.50133,0.10648 0.71429,0 0.30117,-0.15059 0.41311,-0.5637 0.71428,-0.71429 0.21296,-0.10648 0.50133,0.10648 0.71429,0 0.30117,-0.15058 0.41312,-0.5637 0.71428,-0.71428 0.21296,-0.10648 0.50133,0.10648 0.71429,0 2.36899,-2.36899 -0.67343,0.33672 1.42857,-0.71429 0.30117,-0.15058 0.39485,-0.6078 0.71429,-0.71428 0.45175,-0.15059 0.97681,0.15058 1.42857,0 0.31944,-0.10648 0.41312,-0.5637 0.71428,-0.71429 0.21296,-0.10648 0.50133,0.10648 0.71429,0 0.60234,-0.30117 0.7897,-1.21561 1.42857,-1.42857 0.45176,-0.15059 0.97682,0.15058 1.42857,0 0.31944,-0.10648 0.41312,-0.5637 0.71429,-0.71429 0.21296,-0.10648 0.50133,0.10648 0.71428,0 0.30117,-0.15058 0.41312,-0.5637 0.71429,-0.71428 0.21296,-0.10648 0.50133,0.10648 0.71429,0 0.30117,-0.15059 0.41311,-0.5637 0.71428,-0.71429 0.7604,-0.3802 0.66818,0.3802 1.42857,0 0.30117,-0.15058 0.41312,-0.5637 0.71429,-0.71428 0.21296,-0.10648 0.50133,0.10648 0.71428,0 0.30117,-0.15059 0.41312,-0.5637 0.71429,-0.71429 0.21296,-0.10648 0.50133,0.10648 0.71429,0 0.30117,-0.15058 0.41311,-0.5637 0.71428,-0.71429 0.21296,-0.10647 0.50133,0.10648 0.71429,0 0.30117,-0.15058 0.41311,-0.5637 0.71428,-0.71428 0.21296,-0.10648 0.50133,0.10648 0.71429,0 0.30117,-0.15059 0.41312,-0.5637 0.71428,-0.71429 0.21296,-0.10648 0.50133,0.10648 0.71429,0 0.90709,-0.45354 0.52149,-0.97502 1.42857,-1.42857 0.21296,-0.10648 0.50133,0.10648 0.71429,0 0.30117,-0.15058 0.41311,-0.5637 0.71428,-0.71428 0.21296,-0.10648 0.50133,0.10648 0.71429,0 0.30117,-0.15059 0.41312,-0.5637 0.71428,-0.71429 0.21296,-0.10648 0.50133,0.10648 0.71429,0 0.30117,-0.15058 0.41312,-0.5637 0.71429,-0.71429 0.21295,-0.10647 0.50132,0.10648 0.71428,0 0.30117,-0.15058 0.41312,-0.5637 0.71429,-0.71428 0.21296,-0.10648 0.50132,0.10648 0.71428,0 0.30117,-0.15059 0.41312,-0.5637 0.71429,-0.71429 0.21296,-0.10648 0.50133,0.10648 0.71428,0 0.60234,-0.30117 0.82624,-1.1274 1.42858,-1.42857 0.42591,-0.21296 1.00265,0.21296 1.42857,0 0.60234,-0.30117 0.82623,-1.1274 1.42857,-1.42857 0.42592,-0.21296 1.09185,0.33672 1.42857,0 0.16836,-0.16836 -0.16836,-0.54593 0,-0.71429 0.33672,-0.33671 1.00265,0.21296 1.42857,0 0.30117,-0.15058 0.41312,-0.5637 0.71429,-0.71428 0.21296,-0.10648 0.50132,0.10648 0.71428,0 0.30117,-0.15059 0.41312,-0.5637 0.71429,-0.71429 0.42592,-0.21296 1.09185,0.33672 1.42857,0 0.16836,-0.16836 -0.16836,-0.54592 0,-0.71428 0.33672,-0.33672 1.00265,0.21296 1.42857,0 0.30117,-0.15059 0.41312,-0.5637 0.71429,-0.71429 0.42592,-0.21296 1.00265,0.21296 1.42857,0 0.30117,-0.15058 0.41312,-0.5637 0.71428,-0.71428 0.21296,-0.10648 0.50133,0.10648 0.71429,0 0.30117,-0.15059 0.41312,-0.5637 0.71429,-0.71429 0.21295,-0.10648 0.50132,0.10648 0.71428,0 0.30117,-0.15058 0.39485,-0.60781 0.71429,-0.71429 0.45175,-0.15058 1.00265,0.21296 1.42857,0 0.21296,-0.10647 -0.16836,-0.54592 0,-0.71428 0.33672,-0.33672 1.09185,0.33672 1.42857,0 0.16836,-0.16836 -0.16836,-0.54593 0,-0.71429 0.14603,-0.14602 1.85965,0.14161 2.14286,0 0.30117,-0.15058 0.41311,-0.5637 0.71428,-0.71428 0.28321,-0.14161 1.99683,0.14602 2.14286,0 0.16836,-0.16836 -0.16836,-0.54593 0,-0.71429 0.14603,-0.14602 1.85965,0.14161 2.14286,0 0.30117,-0.15058 0.41311,-0.5637 0.71428,-0.71428 0.42592,-0.21296 1.00266,0.21295 1.42857,0 0.30117,-0.15059 0.41312,-0.5637 0.71429,-0.71429 0.42592,-0.21296 1.00265,0.21296 1.42857,0 0.30117,-0.15058 0.41312,-0.5637 0.71429,-0.71429 0.42592,-0.21295 1.00265,0.21296 1.42857,0 0.30117,-0.15058 0.41312,-0.5637 0.71428,-0.71428 0.42592,-0.21296 1.00266,0.21296 1.42858,0 0.30117,-0.15059 0.41311,-0.5637 0.71428,-0.71429 0.57143,-0.28571 1.57143,0.28572 2.14286,0 0.30117,-0.15058 0.41312,-0.5637 0.71428,-0.71428 0.31785,-0.15892 2.53044,0.1089 2.85715,0 0.31944,-0.10648 0.41311,-0.5637 0.71428,-0.71429 0.28321,-0.1416 1.99683,0.14603 2.14286,0 0.16836,-0.16836 -0.16836,-0.54593 0,-0.71428 0.19544,-0.19545 2.46965,0.19374 2.85714,0 0.30117,-0.15059 0.41312,-0.5637 0.71429,-0.71429 0.57143,-0.28571 1.57143,0.28571 2.14286,0 0.30117,-0.15058 0.41311,-0.5637 0.71428,-0.71429 0.38749,-0.19374 2.6617,0.19545 2.85714,0 0.16836,-0.16835 -0.16835,-0.54592 0,-0.71428 0.16836,-0.16836 0.4762,0 0.71429,0 0.2381,0 0.47619,0 0.71429,0 0.50628,0 4.10103,0.0923 4.28571,0 0.30117,-0.15059 0.39485,-0.60781 0.71429,-0.71429 0.36798,-0.12266 4.24441,0 5,0 3.80952,0 7.61904,0 11.42857,0 1.19047,0 2.38095,0 3.57143,0 0.23809,0 0.54592,0.16836 0.71428,0 0.16836,-0.16836 -0.16836,-0.54592 0,-0.71428 0.16836,-0.16836 0.47619,0 0.71429,0 0.23809,0 0.47619,0 0.71428,0 2.38096,0 4.76191,0 7.14286,0 5.47619,0 10.95238,0 16.42857,0 6.19048,0 12.38095,0 18.57143,0 2.14286,0 4.28571,0 6.42857,0 0.49323,0 2.63998,-0.10859 2.85714,0 0.30117,0.15058 0.41312,0.5637 0.71429,0.71428 0.42144,0.21072 1.65155,-0.16377 2.14286,0 0.50507,0.16836 0.92349,0.54593 1.42857,0.71429 0.3938,0.13127 2.70443,-0.15271 2.85714,0 0.16836,0.16836 -0.16836,0.54593 0,0.71428 0.33672,0.33672 1.00266,-0.21295 1.42857,0 0.30117,0.15059 0.41312,0.56371 0.71429,0.71429 0.42592,0.21296 1.00265,-0.21296 1.42857,0 0.30117,0.15059 0.41312,0.5637 0.71429,0.71429 0.42591,0.21295 1.00265,-0.21296 1.42857,0 0.30117,0.15058 0.41311,0.5637 0.71428,0.71428 0.28321,0.14161 1.99683,-0.14602 2.14286,0 0.16836,0.16836 -0.16836,0.54593 0,0.71429 0.33672,0.33672 1.00265,-0.21296 1.42857,0 0.30117,0.15058 0.41312,0.5637 0.71429,0.71428 0.21296,0.10648 0.50132,-0.10648 0.71428,0 0.30117,0.15059 0.41312,0.5637 0.71429,0.71429 0.42592,0.21296 1.09185,-0.33672 1.42857,0 0.16836,0.16836 -0.16836,0.54593 0,0.71428 0.33672,0.33672 1.00265,-0.21295 1.42857,0 0.30117,0.15059 0.41312,0.56371 0.71429,0.71429 0.21296,0.10648 0.54592,-0.16836 0.71428,0 0.16836,0.16836 -0.16836,0.54593 0,0.71429 0.35715,0.35714 1.78572,-0.35715 2.14286,0 0.16836,0.16835 -0.16836,0.54592 0,0.71428 0.33672,0.33672 1.00265,-0.21296 1.42857,0 0.30117,0.15059 0.41312,0.5637 0.71429,0.71429 0.21296,0.10648 0.50132,-0.10648 0.71428,0 0.30117,0.15058 0.41312,0.5637 0.71429,0.71428 0.21296,0.10648 0.54593,-0.16836 0.71428,0 0.16836,0.16836 -0.16835,0.54593 0,0.71429 0.16836,0.16836 0.54593,-0.16836 0.71429,0 0.16836,0.16836 -0.16836,0.54593 0,0.71428 0.16836,0.16836 0.54593,-0.16835 0.71429,0 0.16835,0.16836 -0.10648,0.50133 0,0.71429 0.78966,1.57933 0.44331,0.22166 1.42857,0.71429 2.97268,1.48634 -0.7636,-0.0493 0.71428,1.42857 0.16836,0.16836 0.50133,-0.10648 0.71429,0 0.30117,0.15058 0.41312,0.5637 0.71428,0.71428 0.21296,0.10648 0.50133,-0.10648 0.71429,0 0.30117,0.15059 0.41312,0.5637 0.71429,0.71429 0.42591,0.21296 1.00265,-0.21296 1.42857,0 0.30117,0.15058 0.41311,0.5637 0.71428,0.71428 0.21296,0.10648 0.50133,-0.10647 0.71429,0 0.30117,0.15059 0.41312,0.56371 0.71428,0.71429 0.21296,0.10648 0.50133,-0.10648 0.71429,0 0.30117,0.15059 0.41312,0.5637 0.71429,0.71429 0.21296,0.10648 0.54592,-0.16836 0.71428,0 0.16836,0.16835 -0.16836,0.54592 0,0.71428 0.16836,0.16836 0.50133,-0.10648 0.71429,0 0.30117,0.15059 0.41311,0.5637 0.71428,0.71429 0.21296,0.10648 0.50133,-0.10648 0.71429,0 0.30117,0.15058 0.41312,0.5637 0.71428,0.71428 0.21296,0.10648 0.54593,-0.16836 0.71429,0 0.16836,0.16836 -0.16836,0.54593 0,0.71429 0.16836,0.16836 0.50133,-0.10648 0.71429,0 0.30117,0.15058 0.41311,0.5637 0.71428,0.71428 0.21296,0.10648 0.54593,-0.16835 0.71429,0 0.16836,0.16836 -0.16836,0.54593 0,0.71429 0.16836,0.16836 0.50132,-0.10648 0.71428,0 0.30117,0.15059 0.41312,0.5637 0.71429,0.71429 0.21296,0.10648 0.50133,-0.10648 0.71428,0 0.30117,0.15058 0.41312,0.5637 0.71429,0.71428 0.21296,0.10648 0.50133,-0.10648 0.71429,0 0.60233,0.30117 0.82623,1.1274 1.42857,1.42857 0.21296,0.10648 0.54592,-0.16836 0.71428,0 0.16836,0.16836 -0.16836,0.54593 0,0.71429 0.33672,0.33672 1.00266,-0.21296 1.42857,0 0.30117,0.15058 0.41312,0.5637 0.71429,0.71428 0.21296,0.10648 0.54593,-0.16835 0.71429,0 0.16835,0.16836 -0.16836,0.54593 0,0.71429 0.16835,0.16836 0.54592,-0.16836 0.71428,0 0.16836,0.16836 -0.16836,0.54593 0,0.71429 0.16836,0.16835 0.50133,-0.10648 0.71429,0 0.30117,0.15058 0.41311,0.5637 0.71428,0.71428 0.21296,0.10648 0.54593,-0.16836 0.71429,0 0.16836,0.16836 -0.16836,0.54593 0,0.71429 0.16836,0.16836 0.54593,-0.16836 0.71428,0 0.16836,0.16836 -0.16835,0.54592 0,0.71428 0.16836,0.16836 0.54593,-0.16836 0.71429,0 0.16836,0.16836 -0.16836,0.54593 0,0.71429 0.16836,0.16836 0.54593,-0.16836 0.71429,0 0.16835,0.16836 -0.16836,0.54593 0,0.71428 0.16835,0.16836 0.50132,-0.10647 0.71428,0 0.30117,0.15059 0.41312,0.56371 0.71429,0.71429 0.21296,0.10648 0.54592,-0.16836 0.71428,0 0.16836,0.16836 -0.16836,0.54593 0,0.71429 0.33672,0.33671 1.09186,-0.33672 1.42857,0 0.16836,0.16835 -0.16835,0.54592 0,0.71428 0.16836,0.16836 0.54593,-0.16836 0.71429,0 0.16836,0.16836 -0.10648,0.50133 0,0.71429 0.35144,0.70288 2.5057,2.15426 2.85714,2.85714 0.10648,0.21296 -0.16836,0.54593 0,0.71429 1.47789,1.47788 -0.0578,-2.2584 1.42857,0.71428 0.10648,0.21296 0,0.47619 0,0.71429 0.2381,0.23809 0.56371,0.41311 0.71429,0.71428 0.10648,0.21296 -0.16836,0.54593 0,0.71429 0.37646,0.37646 1.05211,0.33782 1.42857,0.71428 0.33672,0.33672 -0.33672,1.09186 0,1.42858 0.16836,0.16835 0.54593,-0.16836 0.71429,0 0.16836,0.16835 -0.10648,0.50132 0,0.71428 0.15058,0.30117 0.5637,0.41312 0.71428,0.71429 0.10648,0.21296 -0.16836,0.54592 0,0.71428 0.16836,0.16836 0.54593,-0.16836 0.71429,0 0.16836,0.16836 -0.10648,0.50133 0,0.71429 0.15058,0.30117 0.5637,0.41312 0.71428,0.71428 0.10648,0.21296 -0.10647,0.50133 0,0.71429 0.15059,0.30117 0.56371,0.41312 0.71429,0.71429 0.10648,0.21295 -0.10648,0.50132 0,0.71428 2.36899,2.36899 -0.33672,-0.67343 0.71429,1.42857 0.15058,0.30117 0.5637,0.41312 0.71428,0.71429 0.10648,0.21296 0,0.47619 0,0.71428 0,0.4762 -0.15058,0.97682 0,1.42858 0.10648,0.31943 0.5637,0.41311 0.71429,0.71428 0.10648,0.21296 0,0.47619 0,0.71429 0,0.23809 0,0.47619 0,0.71428 0,1.19048 0,2.38096 0,3.57143 0,0.2381 -0.0753,0.48841 0,0.71429 0.16836,0.50507 0.54592,0.92349 0.71428,1.42857 0.0753,0.22588 0,0.47619 0,0.71428 0,0.4762 0,0.95239 0,1.42858 0,1.90476 0,3.80952 0,5.71428 0,1.66667 0,3.33334 0,5 0,0.46936 -0.13433,1.73986 0,2.14286 0.16836,0.50508 0.54593,0.92349 0.71429,1.42857 0.15058,0.45175 0,0.95238 0,1.42857 0,1.19048 0,2.38095 0,3.57143 0,0.71429 -0.22588,1.46523 0,2.14286 0.10648,0.31944 0.5637,0.41311 0.71428,0.71428 0.0801,0.1601 0,2.68741 0,2.85715 0,2.85714 0,5.71428 0,8.57142 0,6.90477 0,13.80953 0,20.71429 0,2.61905 0,5.2381 0,7.85714 0,0.64384 -0.14985,3.12186 0,3.57143 0.16836,0.50508 0.54593,0.9235 0.71429,1.42857 0.0753,0.22588 0,0.47619 0,0.71429 0,0.69205 -0.14197,3.85981 0,4.28571 0.16836,0.50508 0.54593,0.9235 0.71429,1.42857 0.14944,0.44833 0,2.28212 0,2.85715 0,2.14285 0,4.28571 0,6.42857 0,0.60475 -0.12801,2.47314 0,2.85714 0.10648,0.31944 0.5637,0.41312 0.71428,0.71429 0.10859,0.21717 0,2.36391 0,2.85714 0,3.09524 0,6.19048 0,9.28571 0,0.49682 -0.12915,3.31312 0,3.57143 0.15059,0.30117 0.5637,0.41312 0.71429,0.71429 0.10869,0.21738 0,1.82117 0,2.14286 0,1.42857 0,2.85714 0,4.28571 0,0.17323 -0.023,2.11989 0,2.14286 0.16836,0.16836 0.54592,-0.16836 0.71428,0 0.16836,0.16836 0,0.47619 0,0.71428 0,0.2381 0,0.47619 0,0.71429"
       id="path2995"
       inkscape:connector-curvature="0" />
    <text
       xml:space="preserve"
       style="font-size:20px;font-style:normal;font-variant:normal;font-weight:600;font-stretch:normal;text-align:end;line-height:125%;letter-spacing:0px;word-spacing:0px;text-anchor:end;fill:#000000;fill-opacity:1;stroke:none;font-family:Latin Modern Sans Demi Cond;-inkscape-font-specification:Latin Modern Sans Demi Cond Semi-Bold"
       x="588.33582"
       y="499.91028"
       id="text4579"
       sodipodi:linespacing="125%"><tspan
         sodipodi:role="line"
         id="tspan4581"
         x="588.33582"
         y="499.91028">Time</tspan></text>
    <text
       xml:space="preserve"
       style="font-size:20px;font-style:normal;font-variant:normal;font-weight:600;font-stretch:normal;text-align:end;line-height:125%;letter-spacing:0px;word-spacing:0px;text-anchor:end;fill:#000000;fill-opacity:1;stroke:none;font-family:Latin Modern Sans Demi Cond;-inkscape-font-specification:Latin Modern Sans Demi Cond Semi-Bold"
       x="296.12811"
       y="-204.05515"
       id="text4583"
       sodipodi:linespacing="125%"
       transform="matrix(0,1,-1,0,0,0)"><tspan
         sodipodi:role="line"
         id="tspan4585"
         x="296.12811"
         y="-204.05515">Output</tspan></text>
    <text
       xml:space="preserve"
       style="font-size:14px;font-style:normal;font-variant:normal;font-weight:600;font-stretch:normal;text-align:start;line-height:125%;letter-spacing:0px;word-spacing:0px;text-anchor:start;fill:#000000;fill-opacity:1;stroke:none;font-family:Latin Modern Sans Demi Cond;-inkscape-font-specification:Latin Modern Sans Demi Cond Semi-Bold"
       x="240.47868"
       y="440.62454"
       id="text4645"
       sodipodi:linespacing="125%"><tspan
         sodipodi:role="line"
         id="tspan4647"
         x="240.47868"
         y="440.62454">Linear Phase</tspan></text>
    <text
       xml:space="preserve"
       style="font-size:14px;font-style:normal;font-variant:normal;font-weight:600;font-stretch:normal;text-align:start;line-height:125%;letter-spacing:0px;word-spacing:0px;text-anchor:start;fill:#000000;fill-opacity:1;stroke:none;font-family:Latin Modern Sans Demi Cond;-inkscape-font-specification:Latin Modern Sans Demi Cond Semi-Bold"
       x="331.90726"
       y="299.19598"
       id="text4649"
       sodipodi:linespacing="125%"><tspan
         sodipodi:role="line"
         id="tspan4651"
         x="331.90726"
         y="299.19598">Fatigue</tspan></text>
    <text
       xml:space="preserve"
       style="font-size:14px;font-style:normal;font-variant:normal;font-weight:600;font-stretch:normal;text-align:start;line-height:125%;letter-spacing:0px;word-spacing:0px;text-anchor:start;fill:#000000;fill-opacity:1;stroke:none;font-family:Latin Modern Sans Demi Cond;-inkscape-font-specification:Latin Modern Sans Demi Cond Semi-Bold"
       x="549.05011"
       y="296.33884"
       id="text4653"
       sodipodi:linespacing="125%"><tspan
         sodipodi:role="line"
         id="tspan4655"
         x="549.05011"
         y="296.33884">Counter productive</tspan></text>
    <text
       xml:space="preserve"
       style="font-size:14px;font-style:normal;font-variant:normal;font-weight:600;font-stretch:normal;text-align:start;line-height:125%;letter-spacing:0px;word-spacing:0px;text-anchor:start;fill:#000000;fill-opacity:1;stroke:none;font-family:Latin Modern Sans Demi Cond;-inkscape-font-specification:Latin Modern Sans Demi Cond Semi-Bold"
       x="610.4787"
       y="392.05313"
       id="text4657"
       sodipodi:linespacing="125%"><tspan
         sodipodi:role="line"
         id="tspan4659"
         x="610.4787"
         y="392.05313">Burnout</tspan></text>
  </g>
</svg>
