<?xml version="1.0" encoding="UTF-8" standalone="no"?>
<!-- Created with Inkscape (http://www.inkscape.org/) -->

<svg
   xmlns:dc="http://purl.org/dc/elements/1.1/"
   xmlns:cc="http://creativecommons.org/ns#"
   xmlns:rdf="http://www.w3.org/1999/02/22-rdf-syntax-ns#"
   xmlns:svg="http://www.w3.org/2000/svg"
   xmlns="http://www.w3.org/2000/svg"
   xmlns:sodipodi="http://sodipodi.sourceforge.net/DTD/sodipodi-0.dtd"
   xmlns:inkscape="http://www.inkscape.org/namespaces/inkscape"
   width="516.78198"
   height="278.35333"
   id="svg2"
   version="1.1"
   inkscape:version="0.48.4 r9939"
   sodipodi:docname="output-time.svg"
   inkscape:export-filename="/home/luispedro/output-time.png"
   inkscape:export-xdpi="90"
   inkscape:export-ydpi="90">
  <defs
     id="defs4">
    <marker
       inkscape:stockid="Arrow1Send"
       orient="auto"
       refY="0"
       refX="0"
       id="Arrow1Send"
       style="overflow:visible">
      <path
         id="path3784"
         d="M 0,0 5,-5 -12.5,0 5,5 0,0 z"
         style="fill-rule:evenodd;stroke:#000000;stroke-width:1pt"
         transform="matrix(-0.2,0,0,-0.2,-1.2,0)"
         inkscape:connector-curvature="0" />
    </marker>
    <marker
       inkscape:stockid="Arrow1Lend"
       orient="auto"
       refY="0"
       refX="0"
       id="Arrow1Lend"
       style="overflow:visible">
      <path
         id="path3772"
         d="M 0,0 5,-5 -12.5,0 5,5 0,0 z"
         style="fill-rule:evenodd;stroke:#000000;stroke-width:1pt"
         transform="matrix(-0.8,0,0,-0.8,-10,0)"
         inkscape:connector-curvature="0" />
    </marker>
    <marker
       inkscape:stockid="Arrow1Send"
       orient="auto"
       refY="0"
       refX="0"
       id="Arrow1Send-0"
       style="overflow:visible">
      <path
         inkscape:connector-curvature="0"
         id="path3784-9"
         d="M 0,0 5,-5 -12.5,0 5,5 0,0 z"
         style="fill-rule:evenodd;stroke:#000000;stroke-width:1pt"
         transform="matrix(-0.2,0,0,-0.2,-1.2,0)" />
    </marker>
    <marker
       inkscape:stockid="Arrow1Send"
       orient="auto"
       refY="0"
       refX="0"
       id="marker4599"
       style="overflow:visible">
      <path
         inkscape:connector-curvature="0"
         id="path4601"
         d="M 0,0 5,-5 -12.5,0 5,5 0,0 z"
         style="fill-rule:evenodd;stroke:#000000;stroke-width:1pt"
         transform="matrix(-0.2,0,0,-0.2,-1.2,0)" />
    </marker>
  </defs>
  <sodipodi:namedview
     id="base"
     pagecolor="#ffffff"
     bordercolor="#666666"
     borderopacity="1.0"
     inkscape:pageopacity="0.0"
     inkscape:pageshadow="2"
     inkscape:zoom="1.4"
     inkscape:cx="305.82896"
     inkscape:cy="173.44458"
     inkscape:document-units="px"
     inkscape:current-layer="layer1"
     showgrid="false"
     inkscape:window-width="1916"
     inkscape:window-height="1053"
     inkscape:window-x="0"
     inkscape:window-y="0"
     inkscape:window-maximized="0"
     fit-margin-top="0"
     fit-margin-left="0"
     fit-margin-right="0"
     fit-margin-bottom="0" />
  <metadata
     id="metadata7">
    <rdf:RDF>
      <cc:Work
         rdf:about="">
        <dc:format>image/svg+xml</dc:format>
        <dc:type
           rdf:resource="http://purl.org/dc/dcmitype/StillImage" />
        <dc:title />
      </cc:Work>
    </rdf:RDF>
  </metadata>
  <g
     inkscape:label="Layer 1"
     inkscape:groupmode="layer"
     id="layer1"
     transform="translate(0.5363662,-765.32836)">
    <path
       style="fill:none;stroke:#800000;stroke-width:2;stroke-linecap:butt;stroke-linejoin:miter;stroke-miterlimit:4;stroke-opacity:1;stroke-dasharray:none;marker-end:url(#Arrow1Send)"
       d="m 0.4636338,1013.6454 434.3655862,0"
       id="path2989-9"
       inkscape:connector-curvature="0" />
    <path
       style="fill:none;stroke:#800000;stroke-width:2;stroke-linecap:butt;stroke-linejoin:miter;stroke-miterlimit:4;stroke-opacity:1;stroke-dasharray:none;marker-end:url(#Arrow1Send)"
       d="m 17.636227,1037.8891 0,-269.71074"
       id="path2991-5"
       inkscape:connector-curvature="0" />
    <text
       xml:space="preserve"
       style="font-size:20px;font-style:normal;font-variant:normal;font-weight:600;font-stretch:normal;text-align:end;line-height:125%;letter-spacing:0px;word-spacing:0px;text-anchor:end;fill:#000000;fill-opacity:1;stroke:none;font-family:Latin Modern Sans Demi Cond;-inkscape-font-specification:Latin Modern Sans Demi Cond Semi-Bold"
       x="408.72177"
       y="1043.4817"
       id="text4579-5"
       sodipodi:linespacing="125%"><tspan
         sodipodi:role="line"
         id="tspan4581-6"
         x="408.72177"
         y="1043.4817">Time</tspan></text>
    <text
       xml:space="preserve"
       style="font-size:20px;font-style:normal;font-variant:normal;font-weight:600;font-stretch:normal;text-align:end;line-height:125%;letter-spacing:0px;word-spacing:0px;text-anchor:end;fill:#000000;fill-opacity:1;stroke:none;font-family:Latin Modern Sans Demi Cond;-inkscape-font-specification:Latin Modern Sans Demi Cond Semi-Bold"
       x="839.69952"
       y="-24.441088"
       id="text4583-4"
       sodipodi:linespacing="125%"
       transform="matrix(0,1,-1,0,0,0)"><tspan
         sodipodi:role="line"
         id="tspan4585-5"
         x="839.69952"
         y="-24.441088">Output</tspan></text>
    <path
       style="fill:none;stroke:#2c22e9;stroke-width:4;stroke-linecap:butt;stroke-linejoin:miter;stroke-miterlimit:4;stroke-opacity:1;stroke-dasharray:none"
       d="m 17.142857,1011.6479 c 2.619048,0 5.238095,0 7.857143,0 0.238095,0 0.476191,0 0.714286,0 0.238095,0 0.545927,-0.1684 0.714285,0 0.168359,0.1684 -0.168358,0.5459 0,0.7143 0.168359,0.1683 0.476191,0 0.714286,0 0.238095,0 0.476191,0 0.714286,0 1.904762,0 3.809524,0 5.714286,0 4.285714,0 8.571428,0 12.857142,0 1.904762,0 3.809524,0 5.714286,0 0.321684,0 1.925476,-0.1087 2.142857,0 0.30117,0.1506 0.413117,0.5637 0.714286,0.7143 0.187815,0.094 2.483628,0 2.857143,0 2.380952,0 4.761905,0 7.142857,0 2.142857,0 4.285714,0 6.428572,0 0.373514,0 2.669327,0.094 2.857142,0 0.30117,-0.1506 0.413117,-0.5637 0.714286,-0.7143 0.43373,-0.2169 3.851984,0.2168 4.285714,0 0.30117,-0.1506 0.413117,-0.5637 0.714286,-0.7143 0.212959,-0.1065 0.476191,0 0.714286,0 0.238095,0 0.47619,0 0.714286,0 1.190476,0 2.380952,0 3.571428,0 0.238095,0 0.476191,0 0.714286,0 0.238095,0 0.501327,0.1065 0.714286,0 0.301169,-0.1506 0.413116,-0.5637 0.714285,-0.7143 0.212959,-0.1065 0.476191,0 0.714286,0 0.506287,0 4.101035,0.092 4.285714,0 0.30117,-0.1506 0.413117,-0.5637 0.714286,-0.7143 0.425918,-0.2129 1.002654,0.213 1.428571,0 0.30117,-0.1506 0.413117,-0.5637 0.714286,-0.7143 0.425918,-0.2129 1.091854,0.3368 1.428572,0 0.168358,-0.1683 -0.168359,-0.5459 0,-0.7142 0.357142,-0.3572 1.785714,0.3571 2.142857,0 0.168358,-0.1684 -0.168359,-0.546 0,-0.7143 0.336717,-0.3367 1.002653,0.2129 1.428571,0 0.30117,-0.1506 0.41312,-0.5637 0.71429,-0.7143 0.42591,-0.213 1.09185,0.3367 1.42857,0 0.16836,-0.1684 -0.16836,-0.5459 0,-0.7143 0.35714,-0.3571 1.78571,0.3571 2.14285,0 0.16836,-0.1684 -0.16835,-0.5459 0,-0.7143 0.33672,-0.3367 1.09186,0.3367 1.42858,0 0.16835,-0.1683 -0.16836,-0.5459 0,-0.7143 0.16835,-0.1683 0.50132,0.1065 0.71428,0 0.30117,-0.1506 0.41312,-0.5637 0.71429,-0.7143 0.42591,-0.2129 1.09185,0.3368 1.42857,0 0.16836,-0.1683 -0.16836,-0.5459 0,-0.7142 0.17188,-0.1719 2.68526,0.1718 2.85714,0 0.16836,-0.1684 -0.16836,-0.546 0,-0.7143 0.14603,-0.1461 1.85965,0.1416 2.14286,0 0.30117,-0.1506 0.41312,-0.5637 0.71428,-0.7143 0.42592,-0.213 1.00266,0.2129 1.42858,0 0.30117,-0.1506 0.41311,-0.5637 0.71428,-0.7143 0.28321,-0.1416 1.99683,0.146 2.14286,0 0.16836,-0.1684 -0.16836,-0.5459 0,-0.7143 0.14602,-0.146 1.85965,0.1416 2.14286,0 0.30117,-0.1506 0.41311,-0.5637 0.71428,-0.7143 0.28321,-0.1416 1.99683,0.1461 2.14286,0 0.16836,-0.1683 -0.16836,-0.5459 0,-0.71426 0.14602,-0.14603 1.85965,0.1416 2.14286,0 0.30117,-0.15058 0.41311,-0.5637 0.71428,-0.71429 0.42592,-0.21295 1.09186,0.33672 1.42857,0 0.16836,-0.16835 -0.16836,-0.54592 0,-0.71428 0.33672,-0.33672 1.09186,0.33672 1.42857,0 0.16836,-0.16836 -0.16835,-0.54593 0,-0.71429 0.33672,-0.33671 1.00266,0.21296 1.42858,0 0.30117,-0.15058 0.41311,-0.5637 0.71428,-0.71428 0.42592,-0.21296 1.09186,0.33671 1.42857,0 0.16836,-0.16836 -0.16836,-0.54593 0,-0.71429 0.16836,-0.16836 0.50133,0.10648 0.71429,0 0.30117,-0.15058 0.41312,-0.5637 0.71428,-0.71428 0.21296,-0.10648 0.50133,0.10647 0.71429,0 0.30117,-0.15059 0.41312,-0.56371 0.71429,-0.71429 0.21295,-0.10648 0.50132,0.10648 0.71428,0 0.30117,-0.15058 0.41312,-0.5637 0.71429,-0.71429 0.21296,-0.10648 0.50132,0.10648 0.71428,0 0.30117,-0.15058 0.41312,-0.5637 0.71429,-0.71428 0.21296,-0.10648 0.54593,0.16836 0.71428,0 0.16836,-0.16836 -0.16835,-0.54593 0,-0.71429 0.33672,-0.33671 1.00266,0.21296 1.42858,0 0.85714,-0.42857 1.28571,-1.71428 2.14285,-2.14285 0.21296,-0.10648 0.54593,0.16835 0.71429,0 0.16836,-0.16836 -0.16836,-0.54593 0,-0.71429 0.16836,-0.16836 0.50133,0.10648 0.71428,0 0.85715,-0.42857 1.28572,-1.71429 2.14286,-2.14286 0.21296,-0.10648 0.54593,0.16836 0.71429,0 0.16836,-0.16836 -0.16836,-0.54592 0,-0.71428 0.16836,-0.16836 0.54592,0.16836 0.71428,0 0.16836,-0.16836 -0.16836,-0.54593 0,-0.71429 0.16836,-0.16836 0.50133,0.10648 0.71429,0 0.60234,-0.30117 0.82623,-1.1274 1.42857,-1.42857 0.21296,-0.10648 0.54593,0.16836 0.71429,0 0.16835,-0.16836 -0.16836,-0.54593 0,-0.71429 0.16835,-0.16835 0.54592,0.16836 0.71428,0 0.16836,-0.16835 -0.16836,-0.54592 0,-0.71428 0.16836,-0.16836 0.54593,0.16836 0.71429,0 0.16836,-0.16836 -0.16836,-0.54593 0,-0.71429 0.16836,-0.16836 0.47619,0 0.71428,0 0,-0.23809 -0.10648,-0.50132 0,-0.71428 0.65751,-1.31501 1.48535,-0.11356 2.14286,-1.42857 0.10648,-0.21296 -0.16836,-0.54593 0,-0.71429 1.47788,-1.47788 -0.0578,2.2584 1.42857,-0.71429 0.10648,-0.21295 -0.16836,-0.54592 0,-0.71428 0.16836,-0.16836 0.54593,0.16836 0.71429,0 0.16836,-0.16836 -0.16836,-0.54593 0,-0.71429 0.16836,-0.16836 0.50132,0.10648 0.71428,0 0.30117,-0.15058 0.47619,-0.47619 0.71429,-0.71428 0.23809,-0.2381 0.5637,-0.41312 0.71428,-0.71429 0,-1.90476 -0.23809,0.2381 0.71429,-0.71428 1.47788,-1.47789 -2.2584,0.0578 0.71429,-1.42858 0.21295,-0.10648 0.54592,0.16836 0.71428,0 0.16836,-0.16835 -0.10648,-0.50132 0,-0.71428 0.30117,-0.60234 1.1274,-0.82623 1.42857,-1.42857 0.10648,-0.21296 -0.16836,-0.54593 0,-0.71429 0.16836,-0.16836 0.54593,0.16836 0.71429,0 0.16836,-0.16836 -0.10648,-0.50133 0,-0.71428 0.35144,-0.70288 2.5057,-2.15427 2.85714,-2.85715 0.10648,-0.21296 -0.10648,-0.50132 0,-0.71428 0.15059,-0.30117 0.52751,-0.43412 0.71429,-0.71429 0.29532,-0.44298 0.41896,-0.98559 0.71428,-1.42857 0.37356,-0.56033 1.12741,-0.82623 1.42857,-1.42857 0.10648,-0.21296 -0.10647,-0.50133 0,-0.71429 0.37648,-0.75294 1.05211,-0.67563 1.42858,-1.42857 0.10648,-0.21296 -0.10648,-0.50133 0,-0.71428 0.15058,-0.30117 0.5637,-0.41312 0.71428,-0.71429 0.10648,-0.21296 -0.10648,-0.50133 0,-0.71429 0.30117,-0.60233 1.1274,-0.82623 1.42857,-1.42857 0.10648,-0.21296 -0.10648,-0.50132 0,-0.71428 0.30117,-0.60234 1.12741,-0.82624 1.42857,-1.42857 0.10648,-0.21296 -0.10647,-0.50133 0,-0.71429 0.15059,-0.30117 0.56371,-0.41312 0.71429,-0.71429 0.10648,-0.21295 -0.10648,-0.50132 0,-0.71428 0.15058,-0.30117 0.5637,-0.41312 0.71429,-0.71429 0.10648,-0.21296 -0.10648,-0.50132 0,-0.71428 0.15058,-0.30117 0.5637,-0.41312 0.71428,-0.71429 0.10648,-0.21296 -0.10648,-0.50133 0,-0.71428 1.48634,-2.97269 -0.0493,0.76359 1.42857,-0.71429 0.16836,-0.16836 -0.10648,-0.50133 0,-0.71429 0.15059,-0.30117 0.5637,-0.41311 0.71429,-0.71428 0.10648,-0.21296 -0.10648,-0.50133 0,-0.71429 0.15058,-0.30117 0.5637,-0.41311 0.71428,-0.71428 0.10648,-0.21296 -0.10647,-0.50133 0,-0.71429 0.15059,-0.30117 0.56371,-0.41312 0.71429,-0.71428 0.10648,-0.21296 -0.10648,-0.50133 0,-0.71429 0.30117,-0.60234 1.05502,-0.86824 1.42857,-1.42857 1.35316,0.0813 0.47619,-1.66667 0.71429,-2.14286 0.15058,-0.30117 0.5637,-0.41312 0.71428,-0.71428 0.10648,-0.21296 -0.10648,-0.50133 0,-0.71429 0.15059,-0.30117 0.5637,-0.41312 0.71429,-0.71429 0.10648,-0.21295 -0.10648,-0.50132 0,-0.71428 0.30117,-0.60234 1.1274,-0.82623 1.42857,-1.42857 0.10648,-0.21296 -0.10648,-0.50133 0,-0.71429 0.15058,-0.30117 0.5637,-0.41312 0.71429,-0.71428 0.10648,-0.21296 -0.10648,-0.50133 0,-0.71429 0.37647,-0.75294 1.0521,-0.67563 1.42857,-1.42857 0.10648,-0.21296 -0.10648,-0.50133 0,-0.71429 0.37647,-0.75294 1.0521,-0.67563 1.42857,-1.42857 0.10648,-0.21296 -0.10648,-0.50133 0,-0.71428 0.15058,-0.30117 0.5637,-0.41312 0.71428,-0.71429 0.10648,-0.21296 -0.13207,-0.51618 0,-0.71429 0.47619,-0.47619 0.95239,-0.95238 1.42858,-1.42857 0,-0.23809 -0.10648,-0.50132 0,-0.71428 0.30117,-0.60234 1.1274,-0.82624 1.42857,-1.42857 0.10648,-0.21296 -0.10648,-0.50133 0,-0.71429 0.15058,-0.30117 0.5637,-0.41312 0.71428,-0.71429 0.21296,-0.42591 -0.21296,-1.00265 0,-1.42857 0.15059,-0.30117 0.5637,-0.41311 0.71429,-0.71428 0.10648,-0.21296 -0.10648,-0.50133 0,-0.71429 0.15058,-0.30117 0.5637,-0.41312 0.71428,-0.71428 0.10648,-0.21296 -0.10647,-0.50133 0,-0.71429 0.15059,-0.30117 0.56371,-0.41312 0.71429,-0.71429 0.10648,-0.21295 -0.10648,-0.50132 0,-0.71428 0.15058,-0.30117 0.5637,-0.41312 0.71429,-0.71429 0.10648,-0.21296 -0.10648,-0.50132 0,-0.71428 0.15058,-0.30117 0.5637,-0.41312 0.71428,-0.71429 0.10648,-0.21296 -0.10648,-0.50133 0,-0.71428 1.62582,-1.62582 0.18879,0.14793 0.71429,-1.42858 1.72462,-5.17387 -0.20593,1.12615 1.42857,-2.14285 0.10648,-0.21296 -0.10648,-0.50133 0,-0.71429 2.36899,-2.36899 -0.33672,0.67344 0.71428,-1.42857 0.15059,-0.30117 0.56371,-0.41312 0.71429,-0.71429 0.10648,-0.21295 -0.10648,-0.50132 0,-0.71428 0.15058,-0.30117 0.5637,-0.41312 0.71429,-0.71429 0.10648,-0.21296 -0.10648,-0.50132 0,-0.71428 0.30117,-0.60234 1.1274,-0.82624 1.42857,-1.42857 0.10648,-0.21296 -0.10648,-0.50133 0,-0.71429 0.15058,-0.30117 0.5637,-0.41312 0.71428,-0.71429 0.10648,-0.21295 -0.0753,-0.4884 0,-0.71428 0.16836,-0.50508 0.54593,-0.9235 0.71429,-1.42857 0.0753,-0.22588 -0.16836,-0.54593 0,-0.71429 0.16836,-0.16836 0.60781,0.21296 0.71428,0 0.21296,-0.42592 -0.15058,-0.97682 0,-1.42857 0.10648,-0.31944 0.56371,-0.41312 0.71429,-0.71429 0.33672,-0.67343 0.53168,-1.41241 0.71429,-2.14285 0.0577,-0.23099 -0.10648,-0.50133 0,-0.71429 0.42857,-0.85714 1.71428,-1.28571 2.14285,-2.14286 0.10648,-0.21295 -0.10648,-0.50132 0,-0.71428 0.15059,-0.30117 0.5637,-0.41312 0.71429,-0.71429 0.10648,-0.21296 0,-0.47619 0,-0.71428 0.23809,-0.2381 0.5637,-0.41312 0.71428,-0.71429 0.10648,-0.21296 -0.16835,-0.54593 0,-0.71428 0.16836,-0.16836 0.54593,0.16835 0.71429,0 0.33672,-0.33672 -0.21296,-1.00266 0,-1.42858 0.15058,-0.30117 0.5637,-0.41311 0.71429,-0.71428 0.10648,-0.21296 -0.10648,-0.50133 0,-0.71429 0.15058,-0.30117 0.5637,-0.41311 0.71428,-0.71428 0.21296,-0.42592 -0.21296,-1.00266 0,-1.42857 0.15059,-0.30117 0.52751,-0.43412 0.71429,-0.71429 0.29532,-0.44298 0.41896,-0.98559 0.71428,-1.42857 0.18678,-0.28017 0.5637,-0.41312 0.71429,-0.71429 0.10648,-0.21296 -0.10648,-0.50132 0,-0.71428 0.15058,-0.30117 0.5637,-0.41312 0.71428,-0.71429 0.21296,-0.42592 -0.21295,-1.00265 0,-1.42857 1.48635,-2.97269 -0.0493,0.7636 1.42858,-0.71429 0.16835,-0.16835 -0.10648,-0.50132 0,-0.71428 0.15058,-0.30117 0.5275,-0.43412 0.71428,-0.71429 0.29532,-0.44298 0.41897,-0.98559 0.71429,-1.42857 0.18677,-0.28016 0.5637,-0.41312 0.71428,-0.71428 0.10648,-0.21296 -0.10648,-0.50133 0,-0.71429 1.48635,-2.97269 -0.0493,0.7636 1.42857,-0.71429 0.16836,-0.16835 -0.10647,-0.50132 0,-0.71428 0.15059,-0.30117 0.56371,-0.41312 0.71429,-0.71429 0.21296,-0.42592 -0.15058,-0.97682 0,-1.42857 1.72462,-5.17387 -0.20593,1.12615 1.42857,-2.14286 0.10648,-0.21296 -0.10648,-0.50132 0,-0.71428 0.30117,-0.60234 1.05502,-0.86824 1.42857,-1.42857 0.29532,-0.44298 0.41897,-0.98559 0.71429,-1.42857 0.4109,-0.61636 1.58494,-1.58494 2.14286,-2.14286 0.23809,-0.2381 0.5637,-0.41312 0.71428,-0.71429 0.10648,-0.21296 -0.10648,-0.50132 0,-0.71428 0.30117,-0.60234 1.1274,-0.82624 1.42857,-1.42857 0.10648,-0.21296 -0.10648,-0.50133 0,-0.71429 0.30117,-0.60234 1.12741,-0.82623 1.42857,-1.42857 0.21296,-0.42592 -0.21295,-1.00266 0,-1.42857 0.30117,-0.60234 1.05502,-0.86824 1.42858,-1.42857 0.29532,-0.44299 0.41896,-0.98559 0.71428,-1.42858 0.18678,-0.28016 0.5637,-0.41311 0.71429,-0.71428 0.10648,-0.21296 -0.16836,-0.54593 0,-0.71429 0.16836,-0.16836 0.54592,0.16836 0.71428,0 0.33672,-0.33672 -0.21296,-1.00265 0,-1.42857 0.30117,-0.60234 1.12741,-0.82623 1.42857,-1.42857 0.10648,-0.21296 -0.16835,-0.54593 0,-0.71429 0.16836,-0.16835 0.54593,0.16836 0.71429,0 0.16836,-0.16835 -0.10648,-0.50132 0,-0.71428 0.31655,-0.6331 1.70937,-1.49263 2.14286,-2.14286 0.29532,-0.44298 0.33782,-1.05211 0.71428,-1.42857 0.16836,-0.16836 0.54593,0.16836 0.71429,0 0.16836,-0.16836 -0.10648,-0.50133 0,-0.71429 0.38209,-0.76418 1.04648,-0.66439 1.42857,-1.42857 0.10648,-0.21296 -0.10648,-0.50132 0,-0.71428 0.15058,-0.30117 0.5637,-0.41312 0.71429,-0.71429 0.10648,-0.21296 -0.16836,-0.54593 0,-0.71428 0.16835,-0.16836 0.54592,0.16835 0.71428,0 0.16836,-0.16836 -0.10648,-0.50133 0,-0.71429 0.30117,-0.60234 1.1274,-0.82623 1.42857,-1.42857 0.10648,-0.21296 -0.16836,-0.54593 0,-0.71429 0.16836,-0.16836 0.54593,0.16836 0.71429,0 0.16836,-0.16836 -0.10648,-0.50132 0,-0.71428 0.15058,-0.30117 0.5637,-0.41312 0.71428,-0.71429 0.10648,-0.21296 -0.10647,-0.50133 0,-0.71428 1.48635,-2.97269 -0.0493,0.76359 1.42858,-0.71429 0.16835,-0.16836 -0.10648,-0.50133 0,-0.71429 0.15058,-0.30117 0.5637,-0.41311 0.71428,-0.71428 0.10648,-0.21296 -0.16836,-0.54593 0,-0.71429 0.16836,-0.16836 0.54593,0.16836 0.71429,0 0.16836,-0.16836 -0.10648,-0.50132 0,-0.71428 0.15058,-0.30117 0.47619,-0.47619 0.71428,-0.71429 0.42011,-0.4201 2.69176,-2.52637 2.85715,-2.85714 0.49262,-0.98526 -0.86504,-0.63891 0.71428,-1.42857 0.98526,-0.49263 0.63891,0.86504 1.42857,-0.71429 0.10648,-0.21296 -0.16836,-0.54593 0,-0.71428 0.16836,-0.16836 0.54593,0.16835 0.71429,0 0.16836,-0.16836 -0.16836,-0.54593 0,-0.71429 0.16836,-0.16836 0.54593,0.16836 0.71428,0 0.16836,-0.16836 -0.16835,-0.54593 0,-0.71429 0.16836,-0.16835 0.54593,0.16836 0.71429,0 0.33672,-0.33671 -0.33672,-1.09185 0,-1.42857 0.16836,-0.16836 0.50133,0.10648 0.71429,0 2.97268,-1.48634 -0.7636,0.0493 0.71428,-1.42857 0.16836,-0.16836 0.54593,0.16836 0.71429,0 0.16836,-0.16836 -0.10648,-0.50133 0,-0.71428 0.15058,-0.30117 0.5637,-0.41312 0.71428,-0.71429 0.49263,-0.98526 -0.86504,-0.63891 0.71429,-1.42857 0.21296,-0.10648 0.54593,0.16836 0.71428,0 0.16836,-0.16836 -0.10647,-0.50133 0,-0.71429 0.0948,-0.18965 1.95321,-2.04803 2.14286,-2.14285 0.21296,-0.10648 0.54593,0.16835 0.71429,0 0.16836,-0.16836 -0.10648,-0.50133 0,-0.71429 0.42857,-0.85714 1.71428,-1.28571 2.14285,-2.14286 0.49263,-0.98525 -0.86503,-0.63891 0.71429,-1.42857 0.21296,-0.10648 0.51618,0.13207 0.71429,0 0.52827,-0.35218 2.26955,-2.56335 2.85714,-2.85714 0.21296,-0.10648 0.54593,0.16836 0.71428,0 0.16836,-0.16836 -0.16835,-0.54593 0,-0.71429 0.16836,-0.16836 0.54593,0.16836 0.71429,0 0.16836,-0.16836 -0.16836,-0.54592 0,-0.71428 0.16836,-0.16836 0.54593,0.16836 0.71429,0 0.16835,-0.16836 -0.16836,-0.54593 0,-0.71429 0.33671,-0.33672 1.09185,0.33672 1.42857,0 0.16836,-0.16836 -0.16836,-0.54593 0,-0.71428 0.16836,-0.16836 0.54592,0.16835 0.71428,0 0.16836,-0.16836 -0.16836,-0.54593 0,-0.71429 0.16836,-0.16836 0.54593,0.16836 0.71429,0 0.16836,-0.16836 -0.16836,-0.54593 0,-0.71429 0.16836,-0.16835 0.50133,0.10648 0.71428,0 0.30117,-0.15058 0.41312,-0.5637 0.71429,-0.71428 0.21296,-0.10648 0.54593,0.16836 0.71429,0 0.16835,-0.16836 -0.10648,-0.50133 0,-0.71429 1.48634,-2.97268 -0.0493,0.7636 1.42857,-0.71428 0.16836,-0.16836 -0.16836,-0.54593 0,-0.71429 0.16836,-0.16836 0.50132,0.10648 0.71428,0 0.60234,-0.30117 0.82624,-1.1274 1.42857,-1.42857 0.21296,-0.10648 0.54593,0.16836 0.71429,0 0.16836,-0.16836 -0.16836,-0.54593 0,-0.71429 0.16836,-0.16835 0.50133,0.10648 0.71429,0 0.60233,-0.30117 0.82623,-1.1274 1.42857,-1.42857 0.21296,-0.10648 0.54592,0.16836 0.71428,0 0.16836,-0.16836 -0.16836,-0.54592 0,-0.71428 0.35715,-0.35715 1.78572,0.35714 2.14286,0 0.16836,-0.16836 -0.16836,-0.54593 0,-0.71429 0.33672,-0.33672 1.09185,0.33672 1.42857,0 0.16836,-0.16836 -0.16836,-0.54593 0,-0.71428 0.33672,-0.33672 1.09186,0.33671 1.42857,0 0.16836,-0.16836 -0.16836,-0.54593 0,-0.71429 0.33672,-0.33672 1.09186,0.33672 1.42857,0 0.16836,-0.16836 -0.16835,-0.54593 0,-0.71429 0.33672,-0.33671 1.09186,0.33672 1.42858,0 0.16835,-0.16835 -0.16836,-0.54592 0,-0.71428 0.16835,-0.16836 0.54592,0.16836 0.71428,0 0.16836,-0.16836 -0.16836,-0.54593 0,-0.71429 0.16836,-0.16836 0.54593,0.16836 0.71429,0 0.16836,-0.16836 -0.16836,-0.54592 0,-0.71428 0.16836,-0.16836 0.50132,0.10648 0.71428,0 0.30117,-0.15059 0.41312,-0.5637 0.71429,-0.71429 0.21296,-0.10648 0.54593,0.16836 0.71428,0 0.16836,-0.16836 -0.16835,-0.54593 0,-0.71428 0.16836,-0.16836 0.50133,0.10647 0.71429,0 0.30117,-0.15059 0.41312,-0.56371 0.71429,-0.71429 0.21295,-0.10648 0.54592,0.16836 0.71428,0 0.16836,-0.16836 -0.16836,-0.54593 0,-0.71429 0.16836,-0.16835 0.50133,0.10648 0.71429,0 0.30117,-0.15058 0.41311,-0.5637 0.71428,-0.71428 0.21296,-0.10648 0.47619,0 0.71429,0 0.23809,-0.2381 0.41312,-0.5637 0.71428,-0.71429 0.21296,-0.10648 0.54593,0.16836 0.71429,0 0.16836,-0.16836 -0.16836,-0.54592 0,-0.71428 0.33672,-0.33672 1.09185,0.33671 1.42857,0 0.16836,-0.16836 -0.16836,-0.54593 0,-0.71429 0.22118,-0.22118 3.35025,0.22118 3.57143,0 0.16836,-0.16836 -0.16836,-0.54593 0,-0.71428 0.17188,-0.17188 2.68526,0.17187 2.85714,0 0.16836,-0.16836 -0.16836,-0.54593 0,-0.71429 0.17188,-0.17188 2.68527,0.17188 2.85715,0 0.16835,-0.16836 -0.16836,-0.54593 0,-0.71429 0.33671,-0.33671 1.09185,0.33672 1.42857,0 0.16836,-0.16835 -0.16836,-0.54592 0,-0.71428 0.35714,-0.35714 1.78571,0.35714 2.14285,0 0.16836,-0.16836 -0.16835,-0.54593 0,-0.71429 0.35715,-0.35714 1.78572,0.35715 2.14286,0 0.16836,-0.16836 -0.16836,-0.54592 0,-0.71428 0.35714,-0.35715 1.78572,0.35714 2.14286,0 0.16836,-0.16836 -0.16836,-0.54593 0,-0.71429 0.14602,-0.14603 1.85965,0.14161 2.14286,0 0.30117,-0.15058 0.41311,-0.5637 0.71428,-0.71428 0.42592,-0.21296 1.00266,0.21295 1.42857,0 0.30117,-0.15059 0.41312,-0.56371 0.71429,-0.71429 0.21296,-0.10648 0.47619,0 0.71428,0 0.2381,-0.2381 0.41312,-0.5637 0.71429,-0.71429 0.42592,-0.21296 1.00265,0.21296 1.42857,0 0.30117,-0.15058 0.41312,-0.5637 0.71429,-0.71428 0.21296,-0.10648 0.47619,0 0.71428,0 0.2381,0 0.47619,0 0.71429,0 1.42857,0 2.85714,0 4.28571,0 4.28572,0 8.57143,0 12.85715,0 3.57142,0 7.14285,0 10.71428,0 1.42857,0 2.85714,0 4.28572,0 0.32168,0 1.92547,-0.10869 2.14285,0 0.30117,0.15058 0.41312,0.5637 0.71429,0.71428 0.18781,0.0939 2.48363,0 2.85714,0 0.2381,0 0.47619,0 0.71429,0 0.23809,0 0.54592,-0.16836 0.71428,0 0.16836,0.16836 -0.16836,0.54593 0,0.71429 0.17188,0.17188 2.68527,-0.17188 2.85715,0 0.16835,0.16836 -0.16836,0.54593 0,0.71429 0.14602,0.14602 1.85964,-0.14161 2.14285,0 0.30117,0.15058 0.41312,0.5637 0.71429,0.71428 0.28321,0.14161 1.99683,-0.14603 2.14286,0 0.16835,0.16836 -0.16836,0.54593 0,0.71429 0.16835,0.16836 0.50132,-0.10648 0.71428,0 0.30117,0.15058 0.41312,0.5637 0.71429,0.71428 0.42592,0.21296 1.09185,-0.33672 1.42857,0 0.16836,0.16836 -0.16836,0.54593 0,0.71429 0.16836,0.16836 0.50133,-0.10648 0.71428,0 0.30117,0.15058 0.41312,0.5637 0.71429,0.71428 0.21296,0.10648 0.54593,-0.16835 0.71429,0 0.16835,0.16836 -0.16836,0.54593 0,0.71429 0.16835,0.16836 0.54592,-0.16836 0.71428,0 0.16836,0.16836 -0.16836,0.54593 0,0.71429 0.33672,0.33671 1.09186,-0.33672 1.42857,0 0.16836,0.16835 -0.16836,0.54592 0,0.71428 0.16836,0.16836 0.50133,-0.10648 0.71429,0 0.30117,0.15059 0.41312,0.5637 0.71428,0.71429 0.21296,0.10648 0.54593,-0.16836 0.71429,0 0.16836,0.16836 -0.16836,0.54592 0,0.71428 0.16836,0.16836 0.47619,0 0.71429,0 0,0.2381 -0.16836,0.54593 0,0.71429 0.16835,0.16836 0.54592,-0.16836 0.71428,0 0.16836,0.16836 -0.16836,0.54593 0,0.71428 0.16836,0.16836 0.50133,-0.10648 0.71429,0 0.30117,0.15059 0.41311,0.5637 0.71428,0.71429 0.21296,0.10648 0.54593,-0.16836 0.71429,0 0.16836,0.16836 -0.16836,0.54593 0,0.71429 0.16836,0.16835 0.50133,-0.10648 0.71428,0 0.30117,0.15058 0.41312,0.5637 0.71429,0.71428 0.21296,0.10648 0.54593,-0.16836 0.71429,0 0.16835,0.16836 -0.16836,0.54593 0,0.71429 0.16835,0.16836 0.50132,-0.10648 0.71428,0 0.30117,0.15058 0.41312,0.5637 0.71429,0.71428 0.21296,0.10648 0.54592,-0.16836 0.71428,0 0.16836,0.16836 -0.16836,0.54593 0,0.71429 0.16836,0.16836 0.54593,-0.16836 0.71429,0 0.16836,0.16836 -0.16836,0.54593 0,0.71428 0.33672,0.33672 1.09185,-0.33671 1.42857,0 0.16836,0.16836 -0.16836,0.54593 0,0.71429 0.16836,0.16836 0.50133,-0.10648 0.71429,0 0.85714,0.42857 1.28571,1.71429 2.14285,2.14286 0.21296,0.10648 0.54593,-0.16836 0.71429,0 0.16836,0.16836 -0.16836,0.54592 0,0.71428 0.16836,0.16836 0.54593,-0.16836 0.71428,0 0.16836,0.16836 -0.16835,0.54593 0,0.71429 0.16836,0.16836 0.54593,-0.16836 0.71429,0 0.16836,0.16836 -0.16836,0.54593 0,0.71428 0.16836,0.16836 0.54593,-0.16835 0.71429,0 0.16835,0.16836 -0.10648,0.50133 0,0.71429 0.42857,0.85714 1.71428,1.28571 2.14285,2.14286 0.10648,0.21296 -0.16836,0.54592 0,0.71428 0.16836,0.16836 0.54593,-0.16836 0.71429,0 0.16836,0.16836 -0.16836,0.54593 0,0.71429 0.16836,0.16836 0.54593,-0.16836 0.71428,0 0.16836,0.16836 -0.10647,0.50132 0,0.71428 0.15059,0.30117 0.56371,0.41312 0.71429,0.71429 0.10648,0.21296 -0.16836,0.54593 0,0.71429 0.16836,0.16835 0.54593,-0.16836 0.71429,0 0.33671,0.33671 -0.33672,1.09185 0,1.42857 0.16835,0.16836 0.54592,-0.16836 0.71428,0 0.16836,0.16836 -0.10648,0.50132 0,0.71428 0.15059,0.30117 0.5637,0.41312 0.71429,0.71429 0.10648,0.21296 -0.16836,0.54593 0,0.71428 0.16836,0.16836 0.54592,-0.16835 0.71428,0 0.16836,0.16836 -0.16836,0.54593 0,0.71429 0.16836,0.16836 0.54593,-0.16836 0.71429,0 0.16836,0.16836 -0.16836,0.54593 0,0.71429 0.16836,0.16835 0.54593,-0.16836 0.71428,0 0.16836,0.16835 -0.16835,0.54592 0,0.71428 0.16836,0.16836 0.54593,-0.16836 0.71429,0 0.16836,0.16836 -0.10648,0.50133 0,0.71429 0.15059,0.30117 0.5637,0.41311 0.71429,0.71428 0.10648,0.21296 -0.16836,0.54593 0,0.71429 0.16835,0.16836 0.54592,-0.16836 0.71428,0 0.16836,0.16836 -0.10648,0.50132 0,0.71428 0.15059,0.30117 0.5637,0.41312 0.71429,0.71429 0.10648,0.21296 -0.16836,0.54593 0,0.71429 0.16836,0.16835 0.54592,-0.16836 0.71428,0 0.16836,0.16835 -0.10648,0.50132 0,0.71428 0.15059,0.30117 0.5637,0.41312 0.71429,0.71429 0.10648,0.21296 -0.10648,0.50132 0,0.71428 0.15058,0.30117 0.47619,0.47619 0.71428,0.71429 0.2381,0.23809 0.4762,0.47619 0.71429,0.71428 0.2381,0.2381 0.5637,0.41312 0.71429,0.71429 0.10648,0.21296 -0.16836,0.54593 0,0.71429 0.16835,0.16835 0.54592,-0.16836 0.71428,0 0.16836,0.16835 -0.16836,0.54592 0,0.71428 0.16836,0.16836 0.54593,-0.16836 0.71429,0 0.16836,0.16836 -0.10648,0.50133 0,0.71429 0.15058,0.30117 0.5637,0.41311 0.71428,0.71428 0.21296,0.42592 -0.21296,1.00266 0,1.42857 0.15059,0.30117 0.5637,0.41312 0.71429,0.71429 0.21296,0.42592 -0.15059,0.97682 0,1.42857 0.16836,0.50508 0.54593,0.9235 0.71428,1.42857 0.0753,0.22588 -0.10647,0.50133 0,0.71429 0.15059,0.30117 0.56371,0.41311 0.71429,0.71428 0.3802,0.7604 -0.3802,0.66818 0,1.42858 0.15059,0.30116 0.5637,0.41311 0.71429,0.71428 0.21296,0.42592 -0.21296,1.00265 0,1.42857 0.15058,0.30117 0.5637,0.41312 0.71428,0.71429 0.22531,0.45062 -0.22531,3.12081 0,3.57143 0.15059,0.30117 0.5637,0.41311 0.71429,0.71428 0.0939,0.18782 0,2.48363 0,2.85715 0,1.90476 0,3.80952 0,5.71428 0,8.09524 0,16.19048 0,24.28572 0,11.42857 0,22.85714 0,34.28571 0,3.33333 0,6.66667 0,10 0,0.50629 0.0923,4.10103 0,4.28571 -0.15059,0.30117 -0.5637,0.41312 -0.71429,0.71429 -0.12915,0.25831 0,3.07461 0,3.57143 0,2.61905 0,5.23809 0,7.85714 0,0.33679 0.0324,3.53906 0,3.57143 -0.16836,0.16836 -0.54593,-0.16836 -0.71428,0 -0.16836,0.16836 0,0.47619 0,0.71429 0,1.42857 0,2.85714 0,4.28571 0,0.23809 0.16835,0.54593 0,0.71429 -0.16836,0.16835 -0.54593,-0.16836 -0.71429,0 -0.023,0.023 0,1.96962 0,2.14285 0,3.80953 0,7.61905 0,11.42857 0,3.09524 0,6.19048 0,9.28572 0,0.49681 0.12916,3.31312 0,3.57143 -0.15058,0.30117 -0.5637,0.41311 -0.71429,0.71428 -0.12915,0.25831 0,3.07462 0,3.57143 0,3.57143 0,7.14286 0,10.71429 0,0.17323 0.023,2.11988 0,2.14285 -0.16835,0.16836 -0.54592,-0.16835 -0.71428,0 -0.16836,0.16836 0,0.47619 0,0.71429 0,1.19048 0,2.38095 0,3.57143 0,3.09524 0,6.19047 0,9.28571 0,0.2381 0,0.47619 0,0.71429 0,0.23809 -0.16836,0.54593 0,0.71428 0.16836,0.16836 0.54593,-0.16835 0.71428,0 0.16836,0.16836 0,0.47619 0,0.71429 0,1.42856 0,2.85716 0,4.28576 0,2.3809 0,4.7619 0,7.1428 0,0.2381 0,0.4762 0,0.7143 0,0.2381 -0.16835,0.5459 0,0.7143 0.16836,0.1683 0.54593,-0.1684 0.71429,0 0.023,0.023 0,1.9696 0,2.1428 0,0.2381 0.16836,0.546 0,0.7143 -0.16836,0.1684 -0.71429,0.2381 -0.71429,0 0,-0.2381 0.4762,0 0.71429,0"
       id="path4639"
       inkscape:connector-curvature="0" />
    <text
       xml:space="preserve"
       style="font-size:20px;font-style:normal;font-variant:normal;font-weight:600;font-stretch:normal;text-align:end;line-height:125%;letter-spacing:0px;word-spacing:0px;text-anchor:end;fill:#000000;fill-opacity:1;stroke:none;font-family:Latin Modern Sans Demi Cond;-inkscape-font-specification:Latin Modern Sans Demi Cond Semi-Bold"
       x="117.14286"
       y="410.93362"
       id="text4641"
       sodipodi:linespacing="125%"><tspan
         sodipodi:role="line"
         id="tspan4643"
         x="117.14286"
         y="410.93362" /></text>
    <text
       xml:space="preserve"
       style="font-size:14px;font-style:normal;font-variant:normal;font-weight:600;font-stretch:normal;text-align:start;line-height:125%;letter-spacing:0px;word-spacing:0px;text-anchor:start;fill:#000000;fill-opacity:1;stroke:none;font-family:Latin Modern Sans Demi Cond;-inkscape-font-specification:Latin Modern Sans Demi Cond Semi-Bold"
       x="32.857143"
       y="998.07648"
       id="text4661"
       sodipodi:linespacing="125%"><tspan
         sodipodi:role="line"
         id="tspan4663"
         x="32.857143"
         y="998.07648">Maintenance</tspan></text>
    <text
       xml:space="preserve"
       style="font-size:14px;font-style:normal;font-variant:normal;font-weight:600;font-stretch:normal;text-align:start;line-height:125%;letter-spacing:0px;word-spacing:0px;text-anchor:start;fill:#000000;fill-opacity:1;stroke:none;font-family:Latin Modern Sans Demi Cond;-inkscape-font-specification:Latin Modern Sans Demi Cond Semi-Bold"
       x="151.42856"
       y="996.64789"
       id="text4665"
       sodipodi:linespacing="125%"><tspan
         sodipodi:role="line"
         id="tspan4667"
         x="151.42856"
         y="996.64789">Shallow tasks</tspan></text>
    <text
       xml:space="preserve"
       style="font-size:14px;font-style:normal;font-variant:normal;font-weight:600;font-stretch:normal;text-align:start;line-height:125%;letter-spacing:0px;word-spacing:0px;text-anchor:start;fill:#000000;fill-opacity:1;stroke:none;font-family:Latin Modern Sans Demi Cond;-inkscape-font-specification:Latin Modern Sans Demi Cond Semi-Bold"
       x="218.57143"
       y="893.07648"
       id="text4669"
       sodipodi:linespacing="125%"><tspan
         sodipodi:role="line"
         id="tspan4671"
         x="218.57143"
         y="893.07648">Deep thinking</tspan></text>
    <text
       xml:space="preserve"
       style="font-size:14px;font-style:normal;font-variant:normal;font-weight:600;font-stretch:normal;text-align:start;line-height:125%;letter-spacing:0px;word-spacing:0px;text-anchor:start;fill:#000000;fill-opacity:1;stroke:none;font-family:Latin Modern Sans Demi Cond;-inkscape-font-specification:Latin Modern Sans Demi Cond Semi-Bold"
       x="282.14285"
       y="775.93359"
       id="text4673"
       sodipodi:linespacing="125%"><tspan
         sodipodi:role="line"
         id="tspan4675"
         x="282.14285"
         y="775.93359">Fatigue</tspan></text>
    <text
       xml:space="preserve"
       style="font-size:14px;font-style:normal;font-variant:normal;font-weight:600;font-stretch:normal;text-align:start;line-height:125%;letter-spacing:0px;word-spacing:0px;text-anchor:start;fill:#000000;fill-opacity:1;stroke:none;font-family:Latin Modern Sans Demi Cond;-inkscape-font-specification:Latin Modern Sans Demi Cond Semi-Bold"
       x="410.71429"
       y="795.93359"
       id="text4677"
       sodipodi:linespacing="125%"><tspan
         sodipodi:role="line"
         id="tspan4679"
         x="410.71429"
         y="795.93359">Counter-productive</tspan></text>
    <text
       xml:space="preserve"
       style="font-size:14px;font-style:normal;font-variant:normal;font-weight:600;font-stretch:normal;text-align:start;line-height:125%;letter-spacing:0px;word-spacing:0px;text-anchor:start;fill:#000000;fill-opacity:1;stroke:none;font-family:Latin Modern Sans Demi Cond;-inkscape-font-specification:Latin Modern Sans Demi Cond Semi-Bold"
       x="428.57144"
       y="928.07648"
       id="text4681"
       sodipodi:linespacing="125%"><tspan
         sodipodi:role="line"
         id="tspan4683"
         x="428.57144"
         y="928.07648">Burnout</tspan></text>
  </g>
</svg>
